<svg width="112" height="30" viewBox="0 0 112 30" fill="none" xmlns="http://www.w3.org/2000/svg">
<path d="M6.57812 29.9957L14.4593 24.7427L18.8322 29.9957H26.2811V3.73047H24.9555V28.6824H19.7135L6.57812 11.61V29.9957Z" fill="#1AAA11"/>
<path d="M19.703 3.73047L11.8218 8.98352L7.57834 3.73047H0V29.9957H1.31353V5.04373H6.56767L19.703 22.1161V3.73047Z" fill="#1AAA11"/>
<path d="M100.047 8.30831H101.947C102.312 8.82224 103.006 8.97452 103.822 8.97452C104.589 8.97452 105.296 8.76514 105.296 8.34638C105.296 8.05134 105.052 7.76582 104.078 7.6992L102.738 7.60403C100.997 7.4803 100.303 6.72843 100.303 5.76718C100.303 4.59655 101.569 3.73047 103.566 3.73047C105.6 3.73047 106.854 4.65365 107.244 5.71008H105.344C105.113 5.29131 104.297 5.05338 103.554 5.05338C102.836 5.05338 102.19 5.27228 102.19 5.70056C102.19 5.97656 102.495 6.24305 103.225 6.30015L104.614 6.40484C106.209 6.52857 107.183 7.25188 107.183 8.27024C107.183 9.33618 106.039 10.2974 103.822 10.2974C101.691 10.2974 100.485 9.51701 100.047 8.30831Z" fill="white"/>
<path d="M96.0027 7.00741L99.717 10.1672H97.257L94.517 7.8259V10.1672H92.6172V3.84766H94.517V6.2841L97.4032 3.84766H99.717L96.0027 7.00741Z" fill="white"/>
<path d="M88.9889 3.84766H90.8887V10.1672H88.8427L85.3842 6.1223V10.1672H83.4844V3.84766H85.5303L88.9889 7.89253V3.84766Z" fill="white"/>
<path d="M81.6961 3.84766V10.1672H79.7969V3.84766H81.6961Z" fill="white"/>
<path d="M74.7357 3.84766V8.84426H78.6327V10.1672H72.8359V3.84766H74.7357Z" fill="white"/>
<path d="M71.1377 5.83678C71.1377 6.71238 70.5654 7.4928 69.3476 7.7688L71.6858 10.1672H69.3232L67.0703 7.84494H66.0717V10.1672H64.1719V3.84766H68.2759C70.2366 3.84766 71.1377 4.77084 71.1377 5.83678ZM69.238 5.83678C69.238 5.45609 68.8483 5.17057 68.1298 5.17057H66.0717V6.53155H68.1298C68.8483 6.53155 69.238 6.21747 69.238 5.83678Z" fill="white"/>
<path d="M62.6249 5.17057H58.7279V6.3412H62.5397V7.65459H58.7279V8.84426H62.6249V10.1672H56.8281V3.84766H62.6249V5.17057Z" fill="white"/>
<path d="M55.544 5.83678C55.544 6.92176 54.6428 7.84494 52.6821 7.84494H50.4779V10.1672H48.5781V3.84766H52.6821C54.6428 3.84766 55.544 4.77084 55.544 5.83678ZM53.6442 5.83678C53.6442 5.45609 53.2545 5.17057 52.536 5.17057H50.4779V6.53155H52.536C53.2545 6.53155 53.6442 6.21747 53.6442 5.83678Z" fill="white"/>
<path d="M43.5565 6.49348L45.6267 3.84766H47.7092L44.5063 8.01625V10.1672H42.6066V8.01625L39.3672 3.84766H41.4618L43.5565 6.49348Z" fill="white"/>
<path d="M38.4916 10.1672H36.5918V7.65459H33.1576V10.1672H31.2578V3.84766H33.1576V6.3412H36.5918V3.84766H38.4916V10.1672Z" fill="white"/>
<path d="M107.09 15.7532H98.337V20.2073H106.914V22.7065H98.337V27.1854H107.09V29.6846H95.5703V13.2539H107.09V15.7532Z" fill="white"/>
<path d="M85.6878 15.425C82.3426 15.425 79.8526 17.9985 79.8526 21.4628C79.8526 24.9271 82.3426 27.5006 85.6878 27.5006C87.5993 27.5006 89.1084 26.6593 90.0642 25.3726H93.1075C91.7745 28.144 89.1839 29.9999 85.6878 29.9999C80.8084 29.9999 77.0859 26.3376 77.0859 21.4628C77.0859 16.5881 80.8084 12.9258 85.6878 12.9258C89.1839 12.9258 91.7745 14.8064 93.1075 17.5779H90.0642C89.1084 16.2911 87.5993 15.425 85.6878 15.425Z" fill="white"/>
<path d="M63.7756 25.9729L62.1156 29.6846H59.2734L66.5674 13.2539H69.4095L76.7035 29.6846H73.7608L72.1008 25.9729H63.7756ZM70.9941 23.4736L67.9507 16.6192L64.8822 23.4736H70.9941Z" fill="white"/>
<path d="M60.225 18.2029C60.225 20.8754 58.4643 23.1519 54.5407 23.1519H49.2589V29.6846H46.4922V13.2539H54.5407C58.4643 13.2539 60.225 15.5305 60.225 18.2029ZM57.4583 18.2029C57.4583 16.644 56.3013 15.7532 54.4401 15.7532H49.2589V20.6527H54.4401C56.3013 20.6527 57.4583 19.7619 57.4583 18.2029Z" fill="white"/>
<path d="M29.9297 25.3726H32.8221C33.5767 26.7583 35.287 27.5006 37.3243 27.5006C39.6634 27.5006 41.2731 26.5108 41.2731 25.0756C41.2731 23.7146 40.267 23.0218 38.0788 22.7991L35.1864 22.5021C31.8161 22.1804 30.3824 20.3493 30.3824 17.9738C30.3824 15.0044 32.8976 12.9258 36.9218 12.9258C41.0467 12.9258 43.3858 15.3261 44.1403 17.5779H41.2228C40.6191 16.2911 38.8333 15.425 36.8715 15.425C34.457 15.425 33.1491 16.5633 33.1491 17.8748C33.1491 19.1615 34.1803 19.8791 35.9158 20.0524L39.0094 20.3741C42.1534 20.6957 44.0397 22.4526 44.0397 24.9519C44.0397 27.5254 41.7761 29.9999 37.3243 29.9999C32.9227 29.9999 30.7345 27.7976 29.9297 25.3726Z" fill="white"/>
<path d="M110.079 2.62678C109.354 2.62678 108.766 2.03876 108.766 1.31339C108.766 0.588026 109.354 0 110.079 0C110.804 0 111.392 0.588026 111.392 1.31339C111.392 2.03876 110.804 2.62678 110.079 2.62678Z" fill="white"/>
</svg>
