<svg width="50" height="50" viewBox="0 0 50 50" fill="none" xmlns="http://www.w3.org/2000/svg">
<path d="M36.5835 16.9997C36.2073 20.9528 34.5794 30.5458 33.7509 34.9734C33.4005 36.8468 32.7104 37.4751 32.0424 37.5365C30.5908 37.6701 29.4882 36.5771 28.082 35.6553C25.8817 34.213 24.6387 33.3151 22.5028 31.9076C20.0346 30.2811 21.6347 29.3875 23.0413 27.9258C23.4095 27.5434 29.8061 21.7252 29.9299 21.1973C29.9453 21.1313 29.9602 20.8848 29.8136 20.7554C29.667 20.626 29.4517 20.6698 29.2959 20.705C29.0753 20.7551 25.5603 23.0785 18.7508 27.675C17.7531 28.36 16.8494 28.6938 16.0397 28.6764C15.1471 28.6571 13.43 28.1717 12.1535 27.7567C10.5879 27.2478 9.34352 26.9788 9.45189 26.1145C9.50834 25.6642 10.1283 25.2039 11.3118 24.7334C18.5998 21.5582 23.4596 19.4647 25.8912 18.4532C32.8339 15.5654 34.2766 15.0638 35.2169 15.047C35.4238 15.0436 35.8862 15.0948 36.1857 15.3379C36.3849 15.511 36.5119 15.7526 36.5415 16.0149C36.5923 16.3405 36.6064 16.6709 36.5835 16.9997Z" fill="white"/>
</svg>
