<svg width="50" height="50" viewBox="0 0 50 50" fill="none" xmlns="http://www.w3.org/2000/svg">
<path d="M36.9746 16.8311C36.6391 20.3585 34.9271 28.6883 34.1039 32.6427C33.7914 34.3144 33.1761 34.8749 32.5806 34.9297C31.5011 35.029 30.2866 34.1584 29.0461 33.3336C27.1484 32.0719 26.2285 31.5245 24.4204 30.1335C23.22 29.2101 23.9435 28.3137 25.1585 26.9729C25.4576 26.643 30.6064 20.9993 30.9126 20.6649C31.0027 20.5666 30.9775 20.1715 30.8655 20.122C30.8159 20.1001 30.5188 20.1315 30.3878 20.2226C30.2568 20.3137 27.1971 22.622 21.0752 26.3567C20.1538 26.9188 19.38 27.2659 18.658 27.2503C17.8621 27.2331 16.5527 26.9478 15.4146 26.5775C14.0187 26.1234 12.9092 25.8833 13.0059 25.1121C13.0412 24.8302 13.7647 24.5515 14.8077 24.1023C21.3183 21.2982 23.3192 20.2457 27.5757 18.451C31.8321 16.6563 34.8862 15.4538 35.4653 15.2336C36.0444 15.0134 36.3299 15.0633 36.5829 15.1924C36.8359 15.3215 36.9482 15.6548 36.9746 15.8888C37.0198 16.1794 36.9949 16.5377 36.9746 16.8311Z" fill="white"/>
</svg>
